<?xml version="1.0" encoding="UTF-8" standalone="no"?>
<!DOCTYPE svg PUBLIC "-//W3C//DTD SVG 1.1//EN"
 "http://www.w3.org/Graphics/SVG/1.1/DTD/svg11.dtd">
<!-- Generated by graphviz version 2.38.0 (20140413.2041)
 -->
<!-- Title: G Pages: 1 -->
<svg width="1190pt" height="844pt"
 viewBox="0.00 0.00 1190.43 844.00" xmlns="http://www.w3.org/2000/svg" xmlns:xlink="http://www.w3.org/1999/xlink">
<g id="graph0" class="graph" transform="scale(1 1) rotate(0) translate(4 840)">
<title>G</title>
<polygon fill="white" stroke="none" points="-4,4 -4,-840 1186.43,-840 1186.43,4 -4,4"/>
<g id="clust1" class="cluster"><title>cluster_Global</title>
<path fill="none" stroke="gray" d="M557.249,-152C557.249,-152 1162.43,-152 1162.43,-152 1168.43,-152 1174.43,-158 1174.43,-164 1174.43,-164 1174.43,-816 1174.43,-816 1174.43,-822 1168.43,-828 1162.43,-828 1162.43,-828 557.249,-828 557.249,-828 551.249,-828 545.249,-822 545.249,-816 545.249,-816 545.249,-164 545.249,-164 545.249,-158 551.249,-152 557.249,-152"/>
<text text-anchor="middle" x="859.84" y="-815.2" font-family="Times,serif" font-size="11.00" fill="gray">Global</text>
</g>
<g id="clust2" class="cluster"><title>cluster_\Clapp</title>
<path fill="none" stroke="gray" d="M565.249,-160C565.249,-160 1154.43,-160 1154.43,-160 1160.43,-160 1166.43,-166 1166.43,-172 1166.43,-172 1166.43,-788 1166.43,-788 1166.43,-794 1160.43,-800 1154.43,-800 1154.43,-800 565.249,-800 565.249,-800 559.249,-800 553.249,-794 553.249,-788 553.249,-788 553.249,-172 553.249,-172 553.249,-166 559.249,-160 565.249,-160"/>
<text text-anchor="middle" x="859.84" y="-787.2" font-family="Times,serif" font-size="11.00" fill="gray">Clapp</text>
</g>
<g id="clust3" class="cluster"><title>cluster_\Clapp\OtpHu</title>
<path fill="none" stroke="gray" d="M573.249,-168C573.249,-168 1146.43,-168 1146.43,-168 1152.43,-168 1158.43,-174 1158.43,-180 1158.43,-180 1158.43,-760 1158.43,-760 1158.43,-766 1152.43,-772 1146.43,-772 1146.43,-772 573.249,-772 573.249,-772 567.249,-772 561.249,-766 561.249,-760 561.249,-760 561.249,-180 561.249,-180 561.249,-174 567.249,-168 573.249,-168"/>
<text text-anchor="middle" x="859.84" y="-759.2" font-family="Times,serif" font-size="11.00" fill="gray">OtpHu</text>
</g>
<g id="clust4" class="cluster"><title>cluster_\Clapp\OtpHu\Response</title>
<path fill="none" stroke="gray" d="M934.43,-276C934.43,-276 1138.43,-276 1138.43,-276 1144.43,-276 1150.43,-282 1150.43,-288 1150.43,-288 1150.43,-498 1150.43,-498 1150.43,-504 1144.43,-510 1138.43,-510 1138.43,-510 934.43,-510 934.43,-510 928.43,-510 922.43,-504 922.43,-498 922.43,-498 922.43,-288 922.43,-288 922.43,-282 928.43,-276 934.43,-276"/>
<text text-anchor="middle" x="1036.43" y="-497.2" font-family="Times,serif" font-size="11.00" fill="gray">Response</text>
</g>
<g id="clust5" class="cluster"><title>cluster_\Clapp\OtpHu\Request</title>
<path fill="none" stroke="gray" d="M590.249,-564C590.249,-564 1135.43,-564 1135.43,-564 1141.43,-564 1147.43,-570 1147.43,-576 1147.43,-576 1147.43,-732 1147.43,-732 1147.43,-738 1141.43,-744 1135.43,-744 1135.43,-744 590.249,-744 590.249,-744 584.249,-744 578.249,-738 578.249,-732 578.249,-732 578.249,-576 578.249,-576 578.249,-570 584.249,-564 590.249,-564"/>
<text text-anchor="middle" x="862.84" y="-731.2" font-family="Times,serif" font-size="11.00" fill="gray">Request</text>
</g>
<!-- \\Clapp\\OtpHu\\Response\\TransactionDetailsResponse -->
<g id="node1" class="node"><title>\\Clapp\\OtpHu\\Response\\TransactionDetailsResponse</title>
<polygon fill="none" stroke="black" points="1132.43,-374 940.43,-374 940.43,-338 1132.43,-338 1132.43,-374"/>
<text text-anchor="middle" x="1036.43" y="-353.2" font-family="Courier,monospace" font-size="11.00">TransactionDetailsResponse</text>
</g>
<!-- \\Omnipay\\Common\\Message\\AbstractResponse -->
<g id="node14" class="node"><title>\\Omnipay\\Common\\Message\\AbstractResponse</title>
<ellipse fill="none" stroke="black" cx="645.249" cy="-126" rx="181.968" ry="18"/>
<text text-anchor="middle" x="645.249" y="-122.3" font-family="Times,serif" font-size="14.00" fill="gray">\Omnipay\Common\Message\AbstractResponse</text>
</g>
<!-- \\Clapp\\OtpHu\\Response\\TransactionDetailsResponse&#45;&gt;\\Omnipay\\Common\\Message\\AbstractResponse -->
<g id="edge2" class="edge"><title>\\Clapp\\OtpHu\\Response\\TransactionDetailsResponse&#45;&gt;\\Omnipay\\Common\\Message\\AbstractResponse</title>
<path fill="none" stroke="black" d="M940.352,-340.894C933.896,-337.631 927.825,-333.709 922.43,-329 863.175,-277.273 919.144,-214.007 858.43,-164 844.968,-152.912 829.376,-144.602 812.875,-138.425"/>
<polygon fill="none" stroke="black" points="813.658,-134.993 803.064,-135.03 811.369,-141.608 813.658,-134.993"/>
</g>
<!-- \\Clapp\\OtpHu\\Response\\UnknownShopIdResponse -->
<g id="node2" class="node"><title>\\Clapp\\OtpHu\\Response\\UnknownShopIdResponse</title>
<polygon fill="none" stroke="black" points="1115.43,-482 957.43,-482 957.43,-446 1115.43,-446 1115.43,-482"/>
<text text-anchor="middle" x="1036.43" y="-461.2" font-family="Courier,monospace" font-size="11.00">UnknownShopIdResponse</text>
</g>
<!-- \\Clapp\\OtpHu\\BadResponseException -->
<g id="node12" class="node"><title>\\Clapp\\OtpHu\\BadResponseException</title>
<polygon fill="none" stroke="black" points="721.249,-482 569.249,-482 569.249,-446 721.249,-446 721.249,-482"/>
<text text-anchor="middle" x="645.249" y="-461.2" font-family="Courier,monospace" font-size="11.00">BadResponseException</text>
</g>
<!-- \\Clapp\\OtpHu\\Response\\UnknownShopIdResponse&#45;&gt;\\Clapp\\OtpHu\\BadResponseException -->
<g id="edge3" class="edge"><title>\\Clapp\\OtpHu\\Response\\UnknownShopIdResponse&#45;&gt;\\Clapp\\OtpHu\\BadResponseException</title>
<path fill="none" stroke="black" d="M957.142,-464C891.797,-464 798.816,-464 731.581,-464"/>
<polygon fill="none" stroke="black" points="731.437,-460.5 721.437,-464 731.437,-467.5 731.437,-460.5"/>
</g>
<!-- \\Clapp\\OtpHu\\Response\\GenerateTransactionIdResponse -->
<g id="node3" class="node"><title>\\Clapp\\OtpHu\\Response\\GenerateTransactionIdResponse</title>
<polygon fill="none" stroke="black" points="1142.43,-428 930.43,-428 930.43,-392 1142.43,-392 1142.43,-428"/>
<text text-anchor="middle" x="1036.43" y="-407.2" font-family="Courier,monospace" font-size="11.00">GenerateTransactionIdResponse</text>
</g>
<!-- \\Clapp\\OtpHu\\Response\\GenerateTransactionIdResponse&#45;&gt;\\Omnipay\\Common\\Message\\AbstractResponse -->
<g id="edge4" class="edge"><title>\\Clapp\\OtpHu\\Response\\GenerateTransactionIdResponse&#45;&gt;\\Omnipay\\Common\\Message\\AbstractResponse</title>
<path fill="none" stroke="black" d="M933.865,-391.889C929.78,-389.285 925.937,-386.337 922.43,-383 848.964,-313.103 933.869,-231.763 858.43,-164 846.038,-152.869 831.54,-144.459 816.044,-138.162"/>
<polygon fill="none" stroke="black" points="816.869,-134.734 806.276,-134.509 814.417,-141.29 816.869,-134.734"/>
</g>
<!-- \\Clapp\\OtpHu\\Response\\PaymentResponse -->
<g id="node4" class="node"><title>\\Clapp\\OtpHu\\Response\\PaymentResponse</title>
<polygon fill="none" stroke="black" points="1095.43,-320 977.43,-320 977.43,-284 1095.43,-284 1095.43,-320"/>
<text text-anchor="middle" x="1036.43" y="-299.2" font-family="Courier,monospace" font-size="11.00">PaymentResponse</text>
</g>
<!-- \\Clapp\\OtpHu\\Response\\PaymentResponse&#45;&gt;\\Omnipay\\Common\\Message\\AbstractResponse -->
<g id="edge5" class="edge"><title>\\Clapp\\OtpHu\\Response\\PaymentResponse&#45;&gt;\\Omnipay\\Common\\Message\\AbstractResponse</title>
<path fill="none" stroke="black" d="M977.233,-300.336C958.327,-297.397 938.182,-291.472 922.43,-280 874.833,-245.336 906.287,-198.304 858.43,-164 843.084,-152.999 825.545,-144.859 807.273,-138.879"/>
<polygon fill="none" stroke="black" points="808.245,-135.516 797.659,-135.944 806.202,-142.211 808.245,-135.516"/>
</g>
<!-- \\Omnipay\\Common\\Message\\RedirectResponseInterface -->
<g id="node15" class="node"><title>\\Omnipay\\Common\\Message\\RedirectResponseInterface</title>
<ellipse fill="none" stroke="black" cx="645.249" cy="-72" rx="213.362" ry="18"/>
<text text-anchor="middle" x="645.249" y="-68.3" font-family="Times,serif" font-size="14.00" fill="gray">\Omnipay\Common\Message\RedirectResponseInterface</text>
</g>
<!-- \\Clapp\\OtpHu\\Response\\PaymentResponse&#45;&gt;\\Omnipay\\Common\\Message\\RedirectResponseInterface -->
<g id="edge6" class="edge"><title>\\Clapp\\OtpHu\\Response\\PaymentResponse&#45;&gt;\\Omnipay\\Common\\Message\\RedirectResponseInterface</title>
<path fill="none" stroke="black" stroke-dasharray="1,5" d="M977.257,-301.947C957.914,-299.202 937.491,-292.987 922.43,-280 857.812,-224.278 924.844,-152.569 858.43,-99 852.13,-93.9184 845.365,-89.5064 838.259,-85.6868"/>
<polygon fill="none" stroke="black" points="839.602,-82.4466 829.085,-81.1597 836.504,-88.7238 839.602,-82.4466"/>
</g>
<!-- \\Clapp\\OtpHu\\Request\\AbstractRequest -->
<g id="node5" class="node"><title>\\Clapp\\OtpHu\\Request\\AbstractRequest</title>
<polygon fill="none" stroke="black" points="704.249,-662 586.249,-662 586.249,-626 704.249,-626 704.249,-662"/>
<text text-anchor="start" x="611.249" y="-647.2" font-family="Courier,monospace" font-size="11.00">«abstract»</text>
<text text-anchor="start" x="594.249" y="-635.2" font-family="Courier,monospace" font-size="11.00">AbstractRequest</text>
</g>
<!-- \\Omnipay\\Common\\Message\\AbstractRequest -->
<g id="node19" class="node"><title>\\Omnipay\\Common\\Message\\AbstractRequest</title>
<ellipse fill="none" stroke="black" cx="180.034" cy="-644" rx="176.569" ry="18"/>
<text text-anchor="middle" x="180.034" y="-640.3" font-family="Times,serif" font-size="14.00" fill="gray">\Omnipay\Common\Message\AbstractRequest</text>
</g>
<!-- \\Clapp\\OtpHu\\Request\\AbstractRequest&#45;&gt;\\Omnipay\\Common\\Message\\AbstractRequest -->
<g id="edge10" class="edge"><title>\\Clapp\\OtpHu\\Request\\AbstractRequest&#45;&gt;\\Omnipay\\Common\\Message\\AbstractRequest</title>
<path fill="none" stroke="black" d="M586.052,-644C531,-644 445.364,-644 366.991,-644"/>
<polygon fill="none" stroke="black" points="366.977,-640.5 356.977,-644 366.977,-647.5 366.977,-640.5"/>
</g>
<!-- \\Clapp\\OtpHu\\Request\\PaymentRequest -->
<g id="node6" class="node"><title>\\Clapp\\OtpHu\\Request\\PaymentRequest</title>
<polygon fill="none" stroke="black" points="1091.93,-716 980.93,-716 980.93,-680 1091.93,-680 1091.93,-716"/>
<text text-anchor="middle" x="1036.43" y="-695.2" font-family="Courier,monospace" font-size="11.00">PaymentRequest</text>
</g>
<!-- \\Clapp\\OtpHu\\Request\\PaymentRequest&#45;&gt;\\Clapp\\OtpHu\\Request\\AbstractRequest -->
<g id="edge11" class="edge"><title>\\Clapp\\OtpHu\\Request\\PaymentRequest&#45;&gt;\\Clapp\\OtpHu\\Request\\AbstractRequest</title>
<path fill="none" stroke="black" d="M980.906,-690.435C911.134,-680.754 790.254,-663.981 714.458,-653.464"/>
<polygon fill="none" stroke="black" points="714.916,-649.994 704.53,-652.087 713.954,-656.928 714.916,-649.994"/>
</g>
<!-- \\Clapp\\OtpHu\\Request\\GenerateTransactionIdRequest -->
<g id="node7" class="node"><title>\\Clapp\\OtpHu\\Request\\GenerateTransactionIdRequest</title>
<polygon fill="none" stroke="black" points="1139.43,-662 933.43,-662 933.43,-626 1139.43,-626 1139.43,-662"/>
<text text-anchor="middle" x="1036.43" y="-641.2" font-family="Courier,monospace" font-size="11.00">GenerateTransactionIdRequest</text>
</g>
<!-- \\Clapp\\OtpHu\\Request\\GenerateTransactionIdRequest&#45;&gt;\\Clapp\\OtpHu\\Request\\AbstractRequest -->
<g id="edge12" class="edge"><title>\\Clapp\\OtpHu\\Request\\GenerateTransactionIdRequest&#45;&gt;\\Clapp\\OtpHu\\Request\\AbstractRequest</title>
<path fill="none" stroke="black" d="M933.177,-644C864.2,-644 775.071,-644 714.583,-644"/>
<polygon fill="none" stroke="black" points="714.382,-640.5 704.382,-644 714.382,-647.5 714.382,-640.5"/>
</g>
<!-- \\Clapp\\OtpHu\\Request\\TransactionDetailsRequest -->
<g id="node8" class="node"><title>\\Clapp\\OtpHu\\Request\\TransactionDetailsRequest</title>
<polygon fill="none" stroke="black" points="1128.93,-608 943.93,-608 943.93,-572 1128.93,-572 1128.93,-608"/>
<text text-anchor="middle" x="1036.43" y="-587.2" font-family="Courier,monospace" font-size="11.00">TransactionDetailsRequest</text>
</g>
<!-- \\Clapp\\OtpHu\\Request\\TransactionDetailsRequest&#45;&gt;\\Clapp\\OtpHu\\Request\\AbstractRequest -->
<g id="edge13" class="edge"><title>\\Clapp\\OtpHu\\Request\\TransactionDetailsRequest&#45;&gt;\\Clapp\\OtpHu\\Request\\AbstractRequest</title>
<path fill="none" stroke="black" d="M943.777,-607.93C916.393,-612.92 886.256,-618.048 858.43,-622 810.499,-628.808 756.193,-634.399 714.521,-638.242"/>
<polygon fill="none" stroke="black" points="714.122,-634.763 704.481,-639.156 714.757,-641.735 714.122,-634.763"/>
</g>
<!-- \\Clapp\\OtpHu\\TransactionIdFactory -->
<g id="node9" class="node"><title>\\Clapp\\OtpHu\\TransactionIdFactory</title>
<polygon fill="none" stroke="black" points="1112.43,-554 960.43,-554 960.43,-518 1112.43,-518 1112.43,-554"/>
<text text-anchor="middle" x="1036.43" y="-533.2" font-family="Courier,monospace" font-size="11.00">TransactionIdFactory</text>
</g>
<!-- \\Clapp\\OtpHu\\Gateway -->
<g id="node10" class="node"><title>\\Clapp\\OtpHu\\Gateway</title>
<polygon fill="none" stroke="black" points="677.249,-554 613.249,-554 613.249,-518 677.249,-518 677.249,-554"/>
<text text-anchor="middle" x="645.249" y="-533.2" font-family="Courier,monospace" font-size="11.00">Gateway</text>
</g>
<!-- \\Clapp\\OtpHu\\TransactionIdFactory&#45;&gt;\\Clapp\\OtpHu\\Gateway -->
<g id="edge1" class="edge"><title>\\Clapp\\OtpHu\\TransactionIdFactory&#45;&gt;\\Clapp\\OtpHu\\Gateway</title>
<path fill="none" stroke="black" d="M960.392,-536C879.209,-536 752.7,-536 687.774,-536"/>
<polygon fill="none" stroke="black" points="687.522,-532.5 677.522,-536 687.521,-539.5 687.522,-532.5"/>
</g>
<!-- \\Omnipay\\Common\\AbstractGateway -->
<g id="node16" class="node"><title>\\Omnipay\\Common\\AbstractGateway</title>
<ellipse fill="none" stroke="black" cx="180.034" cy="-536" rx="145.674" ry="18"/>
<text text-anchor="middle" x="180.034" y="-532.3" font-family="Times,serif" font-size="14.00" fill="gray">\Omnipay\Common\AbstractGateway</text>
</g>
<!-- \\Clapp\\OtpHu\\Gateway&#45;&gt;\\Omnipay\\Common\\AbstractGateway -->
<g id="edge7" class="edge"><title>\\Clapp\\OtpHu\\Gateway&#45;&gt;\\Omnipay\\Common\\AbstractGateway</title>
<path fill="none" stroke="black" d="M613.137,-536C557.098,-536 435.73,-536 335.849,-536"/>
<polygon fill="none" stroke="black" points="335.638,-532.5 325.638,-536 335.638,-539.5 335.638,-532.5"/>
</g>
<!-- \\Clapp\\OtpHu\\ServerErrorResponseException -->
<g id="node11" class="node"><title>\\Clapp\\OtpHu\\ServerErrorResponseException</title>
<polygon fill="none" stroke="black" points="1139.43,-266 933.43,-266 933.43,-230 1139.43,-230 1139.43,-266"/>
<text text-anchor="middle" x="1036.43" y="-245.2" font-family="Courier,monospace" font-size="11.00">ServerErrorResponseException</text>
</g>
<!-- \\Guzzle\\Http\\Exception\\ServerErrorResponseException -->
<g id="node17" class="node"><title>\\Guzzle\\Http\\Exception\\ServerErrorResponseException</title>
<ellipse fill="none" stroke="black" cx="645.249" cy="-18" rx="207.163" ry="18"/>
<text text-anchor="middle" x="645.249" y="-14.3" font-family="Times,serif" font-size="14.00" fill="gray">\Guzzle\Http\Exception\ServerErrorResponseException</text>
</g>
<!-- \\Clapp\\OtpHu\\ServerErrorResponseException&#45;&gt;\\Guzzle\\Http\\Exception\\ServerErrorResponseException -->
<g id="edge8" class="edge"><title>\\Clapp\\OtpHu\\ServerErrorResponseException&#45;&gt;\\Guzzle\\Http\\Exception\\ServerErrorResponseException</title>
<path fill="none" stroke="black" d="M934.645,-229.92C930.3,-227.315 926.194,-224.356 922.43,-221 860.312,-165.601 923.448,-96.9667 858.43,-45 851.706,-39.6259 844.461,-35.0036 836.843,-31.0411"/>
<polygon fill="none" stroke="black" points="838.269,-27.8437 827.738,-26.687 835.249,-34.1588 838.269,-27.8437"/>
</g>
<!-- \\Guzzle\\Http\\Exception\\BadResponseException -->
<g id="node18" class="node"><title>\\Guzzle\\Http\\Exception\\BadResponseException</title>
<ellipse fill="none" stroke="black" cx="180.034" cy="-464" rx="180.068" ry="18"/>
<text text-anchor="middle" x="180.034" y="-460.3" font-family="Times,serif" font-size="14.00" fill="gray">\Guzzle\Http\Exception\BadResponseException</text>
</g>
<!-- \\Clapp\\OtpHu\\BadResponseException&#45;&gt;\\Guzzle\\Http\\Exception\\BadResponseException -->
<g id="edge9" class="edge"><title>\\Clapp\\OtpHu\\BadResponseException&#45;&gt;\\Guzzle\\Http\\Exception\\BadResponseException</title>
<path fill="none" stroke="black" d="M569.053,-464C515.207,-464 440.188,-464 370.451,-464"/>
<polygon fill="none" stroke="black" points="370.204,-460.5 360.204,-464 370.204,-467.5 370.204,-460.5"/>
</g>
<!-- \\Clapp\\OtpHu\\Transaction -->
<g id="node13" class="node"><title>\\Clapp\\OtpHu\\Transaction</title>
<polygon fill="none" stroke="black" points="1081.93,-212 990.93,-212 990.93,-176 1081.93,-176 1081.93,-212"/>
<text text-anchor="middle" x="1036.43" y="-191.2" font-family="Courier,monospace" font-size="11.00">Transaction</text>
</g>
</g>
</svg>
