<?xml version="1.0" encoding="UTF-8" standalone="no"?>
<!DOCTYPE svg PUBLIC "-//W3C//DTD SVG 1.1//EN"
 "http://www.w3.org/Graphics/SVG/1.1/DTD/svg11.dtd">
<!-- Generated by graphviz version 2.38.0 (20140413.2041)
 -->
<!-- Title: G Pages: 1 -->
<svg width="1190pt" height="844pt"
 viewBox="0.00 0.00 1190.43 844.00" xmlns="http://www.w3.org/2000/svg" xmlns:xlink="http://www.w3.org/1999/xlink">
<g id="graph0" class="graph" transform="scale(1 1) rotate(0) translate(4 840)">
<title>G</title>
<polygon fill="white" stroke="none" points="-4,4 -4,-840 1186.43,-840 1186.43,4 -4,4"/>
<g id="clust1" class="cluster"><title>cluster_Global</title>
<path fill="none" stroke="gray" d="M557.249,-152C557.249,-152 1162.43,-152 1162.43,-152 1168.43,-152 1174.43,-158 1174.43,-164 1174.43,-164 1174.43,-816 1174.43,-816 1174.43,-822 1168.43,-828 1162.43,-828 1162.43,-828 557.249,-828 557.249,-828 551.249,-828 545.249,-822 545.249,-816 545.249,-816 545.249,-164 545.249,-164 545.249,-158 551.249,-152 557.249,-152"/>
<text text-anchor="middle" x="859.84" y="-815.2" font-family="Times,serif" font-size="11.00" fill="gray">Global</text>
</g>
<g id="clust2" class="cluster"><title>cluster_\Clapp</title>
<path fill="none" stroke="gray" d="M565.249,-160C565.249,-160 1154.43,-160 1154.43,-160 1160.43,-160 1166.43,-166 1166.43,-172 1166.43,-172 1166.43,-788 1166.43,-788 1166.43,-794 1160.43,-800 1154.43,-800 1154.43,-800 565.249,-800 565.249,-800 559.249,-800 553.249,-794 553.249,-788 553.249,-788 553.249,-172 553.249,-172 553.249,-166 559.249,-160 565.249,-160"/>
<text text-anchor="middle" x="859.84" y="-787.2" font-family="Times,serif" font-size="11.00" fill="gray">Clapp</text>
</g>
<g id="clust3" class="cluster"><title>cluster_\Clapp\OtpHu</title>
<path fill="none" stroke="gray" d="M573.249,-168C573.249,-168 1146.43,-168 1146.43,-168 1152.43,-168 1158.43,-174 1158.43,-180 1158.43,-180 1158.43,-760 1158.43,-760 1158.43,-766 1152.43,-772 1146.43,-772 1146.43,-772 573.249,-772 573.249,-772 567.249,-772 561.249,-766 561.249,-760 561.249,-760 561.249,-180 561.249,-180 561.249,-174 567.249,-168 573.249,-168"/>
<text text-anchor="middle" x="859.84" y="-759.2" font-family="Times,serif" font-size="11.00" fill="gray">OtpHu</text>
</g>
<g id="clust4" class="cluster"><title>cluster_\Clapp\OtpHu\Response</title>
<path fill="none" stroke="gray" d="M934.43,-222C934.43,-222 1138.43,-222 1138.43,-222 1144.43,-222 1150.43,-228 1150.43,-234 1150.43,-234 1150.43,-444 1150.43,-444 1150.43,-450 1144.43,-456 1138.43,-456 1138.43,-456 934.43,-456 934.43,-456 928.43,-456 922.43,-450 922.43,-444 922.43,-444 922.43,-234 922.43,-234 922.43,-228 928.43,-222 934.43,-222"/>
<text text-anchor="middle" x="1036.43" y="-443.2" font-family="Times,serif" font-size="11.00" fill="gray">Response</text>
</g>
<g id="clust5" class="cluster"><title>cluster_\Clapp\OtpHu\Request</title>
<path fill="none" stroke="gray" d="M590.249,-564C590.249,-564 1135.43,-564 1135.43,-564 1141.43,-564 1147.43,-570 1147.43,-576 1147.43,-576 1147.43,-732 1147.43,-732 1147.43,-738 1141.43,-744 1135.43,-744 1135.43,-744 590.249,-744 590.249,-744 584.249,-744 578.249,-738 578.249,-732 578.249,-732 578.249,-576 578.249,-576 578.249,-570 584.249,-564 590.249,-564"/>
<text text-anchor="middle" x="862.84" y="-731.2" font-family="Times,serif" font-size="11.00" fill="gray">Request</text>
</g>
<!-- \\Clapp\\OtpHu\\Response\\PaymentResponse -->
<g id="node1" class="node"><title>\\Clapp\\OtpHu\\Response\\PaymentResponse</title>
<polygon fill="none" stroke="black" points="1095.43,-266 977.43,-266 977.43,-230 1095.43,-230 1095.43,-266"/>
<text text-anchor="middle" x="1036.43" y="-245.2" font-family="Courier,monospace" font-size="11.00">PaymentResponse</text>
</g>
<!-- \\Omnipay\\Common\\Message\\AbstractResponse -->
<g id="node15" class="node"><title>\\Omnipay\\Common\\Message\\AbstractResponse</title>
<ellipse fill="none" stroke="black" cx="645.249" cy="-126" rx="181.968" ry="18"/>
<text text-anchor="middle" x="645.249" y="-122.3" font-family="Times,serif" font-size="14.00" fill="gray">\Omnipay\Common\Message\AbstractResponse</text>
</g>
<!-- \\Clapp\\OtpHu\\Response\\PaymentResponse&#45;&gt;\\Omnipay\\Common\\Message\\AbstractResponse -->
<g id="edge2" class="edge"><title>\\Clapp\\OtpHu\\Response\\PaymentResponse&#45;&gt;\\Omnipay\\Common\\Message\\AbstractResponse</title>
<path fill="none" stroke="black" d="M977.249,-243.212C958.955,-240.021 939.175,-234.737 922.43,-226 887.319,-207.68 893.678,-182.055 858.43,-164 837.811,-153.438 814.756,-145.763 791.649,-140.195"/>
<polygon fill="none" stroke="black" points="792.278,-136.748 781.75,-137.935 790.72,-143.573 792.278,-136.748"/>
</g>
<!-- \\Omnipay\\Common\\Message\\RedirectResponseInterface -->
<g id="node16" class="node"><title>\\Omnipay\\Common\\Message\\RedirectResponseInterface</title>
<ellipse fill="none" stroke="black" cx="645.249" cy="-72" rx="213.362" ry="18"/>
<text text-anchor="middle" x="645.249" y="-68.3" font-family="Times,serif" font-size="14.00" fill="gray">\Omnipay\Common\Message\RedirectResponseInterface</text>
</g>
<!-- \\Clapp\\OtpHu\\Response\\PaymentResponse&#45;&gt;\\Omnipay\\Common\\Message\\RedirectResponseInterface -->
<g id="edge3" class="edge"><title>\\Clapp\\OtpHu\\Response\\PaymentResponse&#45;&gt;\\Omnipay\\Common\\Message\\RedirectResponseInterface</title>
<path fill="none" stroke="black" stroke-dasharray="1,5" d="M977.274,-246.716C958.264,-243.82 938.045,-237.825 922.43,-226 872.042,-187.842 910.045,-135.482 858.43,-99 851.16,-93.861 843.39,-89.4478 835.278,-85.6694"/>
<polygon fill="none" stroke="black" points="836.551,-82.4072 825.982,-81.6685 833.784,-88.8369 836.551,-82.4072"/>
</g>
<!-- \\Clapp\\OtpHu\\Response\\UnknownShopIdResponse -->
<g id="node2" class="node"><title>\\Clapp\\OtpHu\\Response\\UnknownShopIdResponse</title>
<polygon fill="none" stroke="black" points="1115.43,-428 957.43,-428 957.43,-392 1115.43,-392 1115.43,-428"/>
<text text-anchor="middle" x="1036.43" y="-407.2" font-family="Courier,monospace" font-size="11.00">UnknownShopIdResponse</text>
</g>
<!-- \\Clapp\\OtpHu\\BadResponseException -->
<g id="node12" class="node"><title>\\Clapp\\OtpHu\\BadResponseException</title>
<polygon fill="none" stroke="black" points="721.249,-428 569.249,-428 569.249,-392 721.249,-392 721.249,-428"/>
<text text-anchor="middle" x="645.249" y="-407.2" font-family="Courier,monospace" font-size="11.00">BadResponseException</text>
</g>
<!-- \\Clapp\\OtpHu\\Response\\UnknownShopIdResponse&#45;&gt;\\Clapp\\OtpHu\\BadResponseException -->
<g id="edge5" class="edge"><title>\\Clapp\\OtpHu\\Response\\UnknownShopIdResponse&#45;&gt;\\Clapp\\OtpHu\\BadResponseException</title>
<path fill="none" stroke="black" d="M957.142,-410C891.797,-410 798.816,-410 731.581,-410"/>
<polygon fill="none" stroke="black" points="731.437,-406.5 721.437,-410 731.437,-413.5 731.437,-406.5"/>
</g>
<!-- \\Clapp\\OtpHu\\Response\\TransactionDetailsResponse -->
<g id="node3" class="node"><title>\\Clapp\\OtpHu\\Response\\TransactionDetailsResponse</title>
<polygon fill="none" stroke="black" points="1132.43,-374 940.43,-374 940.43,-338 1132.43,-338 1132.43,-374"/>
<text text-anchor="middle" x="1036.43" y="-353.2" font-family="Courier,monospace" font-size="11.00">TransactionDetailsResponse</text>
</g>
<!-- \\Clapp\\OtpHu\\Response\\TransactionDetailsResponse&#45;&gt;\\Omnipay\\Common\\Message\\AbstractResponse -->
<g id="edge7" class="edge"><title>\\Clapp\\OtpHu\\Response\\TransactionDetailsResponse&#45;&gt;\\Omnipay\\Common\\Message\\AbstractResponse</title>
<path fill="none" stroke="black" d="M940.352,-340.894C933.896,-337.631 927.825,-333.709 922.43,-329 863.175,-277.273 919.144,-214.007 858.43,-164 844.968,-152.912 829.376,-144.602 812.875,-138.425"/>
<polygon fill="none" stroke="black" points="813.658,-134.993 803.064,-135.03 811.369,-141.608 813.658,-134.993"/>
</g>
<!-- \\Clapp\\OtpHu\\Response\\GenerateTransactionIdResponse -->
<g id="node4" class="node"><title>\\Clapp\\OtpHu\\Response\\GenerateTransactionIdResponse</title>
<polygon fill="none" stroke="black" points="1142.43,-320 930.43,-320 930.43,-284 1142.43,-284 1142.43,-320"/>
<text text-anchor="middle" x="1036.43" y="-299.2" font-family="Courier,monospace" font-size="11.00">GenerateTransactionIdResponse</text>
</g>
<!-- \\Clapp\\OtpHu\\Response\\GenerateTransactionIdResponse&#45;&gt;\\Omnipay\\Common\\Message\\AbstractResponse -->
<g id="edge9" class="edge"><title>\\Clapp\\OtpHu\\Response\\GenerateTransactionIdResponse&#45;&gt;\\Omnipay\\Common\\Message\\AbstractResponse</title>
<path fill="none" stroke="black" d="M936.96,-283.937C931.844,-281.34 926.956,-278.378 922.43,-275 876.793,-240.939 905.024,-196.739 858.43,-164 842.785,-153.007 824.933,-144.889 806.378,-138.935"/>
<polygon fill="none" stroke="black" points="807.203,-135.529 796.619,-136.015 805.196,-142.235 807.203,-135.529"/>
</g>
<!-- \\Clapp\\OtpHu\\Request\\GenerateTransactionIdRequest -->
<g id="node5" class="node"><title>\\Clapp\\OtpHu\\Request\\GenerateTransactionIdRequest</title>
<polygon fill="none" stroke="black" points="1139.43,-716 933.43,-716 933.43,-680 1139.43,-680 1139.43,-716"/>
<text text-anchor="middle" x="1036.43" y="-695.2" font-family="Courier,monospace" font-size="11.00">GenerateTransactionIdRequest</text>
</g>
<!-- \\Clapp\\OtpHu\\Request\\AbstractRequest -->
<g id="node6" class="node"><title>\\Clapp\\OtpHu\\Request\\AbstractRequest</title>
<polygon fill="none" stroke="black" points="704.249,-662 586.249,-662 586.249,-626 704.249,-626 704.249,-662"/>
<text text-anchor="start" x="611.249" y="-647.2" font-family="Courier,monospace" font-size="11.00">«abstract»</text>
<text text-anchor="start" x="594.249" y="-635.2" font-family="Courier,monospace" font-size="11.00">AbstractRequest</text>
</g>
<!-- \\Clapp\\OtpHu\\Request\\GenerateTransactionIdRequest&#45;&gt;\\Clapp\\OtpHu\\Request\\AbstractRequest -->
<g id="edge4" class="edge"><title>\\Clapp\\OtpHu\\Request\\GenerateTransactionIdRequest&#45;&gt;\\Clapp\\OtpHu\\Request\\AbstractRequest</title>
<path fill="none" stroke="black" d="M933.177,-683.812C864.2,-674.241 775.071,-661.874 714.583,-653.482"/>
<polygon fill="none" stroke="black" points="714.768,-649.974 704.382,-652.066 713.806,-656.907 714.768,-649.974"/>
</g>
<!-- \\Omnipay\\Common\\Message\\AbstractRequest -->
<g id="node17" class="node"><title>\\Omnipay\\Common\\Message\\AbstractRequest</title>
<ellipse fill="none" stroke="black" cx="180.034" cy="-644" rx="176.569" ry="18"/>
<text text-anchor="middle" x="180.034" y="-640.3" font-family="Times,serif" font-size="14.00" fill="gray">\Omnipay\Common\Message\AbstractRequest</text>
</g>
<!-- \\Clapp\\OtpHu\\Request\\AbstractRequest&#45;&gt;\\Omnipay\\Common\\Message\\AbstractRequest -->
<g id="edge8" class="edge"><title>\\Clapp\\OtpHu\\Request\\AbstractRequest&#45;&gt;\\Omnipay\\Common\\Message\\AbstractRequest</title>
<path fill="none" stroke="black" d="M586.052,-644C531,-644 445.364,-644 366.991,-644"/>
<polygon fill="none" stroke="black" points="366.977,-640.5 356.977,-644 366.977,-647.5 366.977,-640.5"/>
</g>
<!-- \\Clapp\\OtpHu\\Request\\PaymentRequest -->
<g id="node7" class="node"><title>\\Clapp\\OtpHu\\Request\\PaymentRequest</title>
<polygon fill="none" stroke="black" points="1091.93,-662 980.93,-662 980.93,-626 1091.93,-626 1091.93,-662"/>
<text text-anchor="middle" x="1036.43" y="-641.2" font-family="Courier,monospace" font-size="11.00">PaymentRequest</text>
</g>
<!-- \\Clapp\\OtpHu\\Request\\PaymentRequest&#45;&gt;\\Clapp\\OtpHu\\Request\\AbstractRequest -->
<g id="edge11" class="edge"><title>\\Clapp\\OtpHu\\Request\\PaymentRequest&#45;&gt;\\Clapp\\OtpHu\\Request\\AbstractRequest</title>
<path fill="none" stroke="black" d="M980.906,-644C911.277,-644 790.747,-644 714.923,-644"/>
<polygon fill="none" stroke="black" points="714.53,-640.5 704.53,-644 714.53,-647.5 714.53,-640.5"/>
</g>
<!-- \\Clapp\\OtpHu\\Request\\TransactionDetailsRequest -->
<g id="node8" class="node"><title>\\Clapp\\OtpHu\\Request\\TransactionDetailsRequest</title>
<polygon fill="none" stroke="black" points="1128.93,-608 943.93,-608 943.93,-572 1128.93,-572 1128.93,-608"/>
<text text-anchor="middle" x="1036.43" y="-587.2" font-family="Courier,monospace" font-size="11.00">TransactionDetailsRequest</text>
</g>
<!-- \\Clapp\\OtpHu\\Request\\TransactionDetailsRequest&#45;&gt;\\Clapp\\OtpHu\\Request\\AbstractRequest -->
<g id="edge12" class="edge"><title>\\Clapp\\OtpHu\\Request\\TransactionDetailsRequest&#45;&gt;\\Clapp\\OtpHu\\Request\\AbstractRequest</title>
<path fill="none" stroke="black" d="M943.777,-607.93C916.393,-612.92 886.256,-618.048 858.43,-622 810.499,-628.808 756.193,-634.399 714.521,-638.242"/>
<polygon fill="none" stroke="black" points="714.122,-634.763 704.481,-639.156 714.757,-641.735 714.122,-634.763"/>
</g>
<!-- \\Clapp\\OtpHu\\Transaction -->
<g id="node9" class="node"><title>\\Clapp\\OtpHu\\Transaction</title>
<polygon fill="none" stroke="black" points="1081.93,-500 990.93,-500 990.93,-464 1081.93,-464 1081.93,-500"/>
<text text-anchor="middle" x="1036.43" y="-479.2" font-family="Courier,monospace" font-size="11.00">Transaction</text>
</g>
<!-- \\Clapp\\OtpHu\\Gateway -->
<g id="node10" class="node"><title>\\Clapp\\OtpHu\\Gateway</title>
<polygon fill="none" stroke="black" points="677.249,-554 613.249,-554 613.249,-518 677.249,-518 677.249,-554"/>
<text text-anchor="middle" x="645.249" y="-533.2" font-family="Courier,monospace" font-size="11.00">Gateway</text>
</g>
<!-- \\Omnipay\\Common\\AbstractGateway -->
<g id="node14" class="node"><title>\\Omnipay\\Common\\AbstractGateway</title>
<ellipse fill="none" stroke="black" cx="180.034" cy="-536" rx="145.674" ry="18"/>
<text text-anchor="middle" x="180.034" y="-532.3" font-family="Times,serif" font-size="14.00" fill="gray">\Omnipay\Common\AbstractGateway</text>
</g>
<!-- \\Clapp\\OtpHu\\Gateway&#45;&gt;\\Omnipay\\Common\\AbstractGateway -->
<g id="edge1" class="edge"><title>\\Clapp\\OtpHu\\Gateway&#45;&gt;\\Omnipay\\Common\\AbstractGateway</title>
<path fill="none" stroke="black" d="M613.137,-536C557.098,-536 435.73,-536 335.849,-536"/>
<polygon fill="none" stroke="black" points="335.638,-532.5 325.638,-536 335.638,-539.5 335.638,-532.5"/>
</g>
<!-- \\Clapp\\OtpHu\\TransactionIdFactory -->
<g id="node11" class="node"><title>\\Clapp\\OtpHu\\TransactionIdFactory</title>
<polygon fill="none" stroke="black" points="1112.43,-554 960.43,-554 960.43,-518 1112.43,-518 1112.43,-554"/>
<text text-anchor="middle" x="1036.43" y="-533.2" font-family="Courier,monospace" font-size="11.00">TransactionIdFactory</text>
</g>
<!-- \\Clapp\\OtpHu\\TransactionIdFactory&#45;&gt;\\Clapp\\OtpHu\\Gateway -->
<g id="edge6" class="edge"><title>\\Clapp\\OtpHu\\TransactionIdFactory&#45;&gt;\\Clapp\\OtpHu\\Gateway</title>
<path fill="none" stroke="black" d="M960.392,-536C879.209,-536 752.7,-536 687.774,-536"/>
<polygon fill="none" stroke="black" points="687.522,-532.5 677.522,-536 687.521,-539.5 687.522,-532.5"/>
</g>
<!-- \\Guzzle\\Http\\Exception\\BadResponseException -->
<g id="node18" class="node"><title>\\Guzzle\\Http\\Exception\\BadResponseException</title>
<ellipse fill="none" stroke="black" cx="180.034" cy="-410" rx="180.068" ry="18"/>
<text text-anchor="middle" x="180.034" y="-406.3" font-family="Times,serif" font-size="14.00" fill="gray">\Guzzle\Http\Exception\BadResponseException</text>
</g>
<!-- \\Clapp\\OtpHu\\BadResponseException&#45;&gt;\\Guzzle\\Http\\Exception\\BadResponseException -->
<g id="edge10" class="edge"><title>\\Clapp\\OtpHu\\BadResponseException&#45;&gt;\\Guzzle\\Http\\Exception\\BadResponseException</title>
<path fill="none" stroke="black" d="M569.053,-410C515.207,-410 440.188,-410 370.451,-410"/>
<polygon fill="none" stroke="black" points="370.204,-406.5 360.204,-410 370.204,-413.5 370.204,-406.5"/>
</g>
<!-- \\Clapp\\OtpHu\\ServerErrorResponseException -->
<g id="node13" class="node"><title>\\Clapp\\OtpHu\\ServerErrorResponseException</title>
<polygon fill="none" stroke="black" points="1139.43,-212 933.43,-212 933.43,-176 1139.43,-176 1139.43,-212"/>
<text text-anchor="middle" x="1036.43" y="-191.2" font-family="Courier,monospace" font-size="11.00">ServerErrorResponseException</text>
</g>
<!-- \\Guzzle\\Http\\Exception\\ServerErrorResponseException -->
<g id="node19" class="node"><title>\\Guzzle\\Http\\Exception\\ServerErrorResponseException</title>
<ellipse fill="none" stroke="black" cx="645.249" cy="-18" rx="207.163" ry="18"/>
<text text-anchor="middle" x="645.249" y="-14.3" font-family="Times,serif" font-size="14.00" fill="gray">\Guzzle\Http\Exception\ServerErrorResponseException</text>
</g>
<!-- \\Clapp\\OtpHu\\ServerErrorResponseException&#45;&gt;\\Guzzle\\Http\\Exception\\ServerErrorResponseException -->
<g id="edge13" class="edge"><title>\\Clapp\\OtpHu\\ServerErrorResponseException&#45;&gt;\\Guzzle\\Http\\Exception\\ServerErrorResponseException</title>
<path fill="none" stroke="black" d="M1020.36,-175.762C992.305,-143.229 928.511,-75.7218 858.43,-45 846.047,-39.5713 832.893,-35.1407 819.439,-31.5341"/>
<polygon fill="none" stroke="black" points="820.149,-28.1035 809.597,-29.051 818.437,-34.8909 820.149,-28.1035"/>
</g>
</g>
</svg>
