<?xml version="1.0" encoding="UTF-8" standalone="no"?>
<!DOCTYPE svg PUBLIC "-//W3C//DTD SVG 1.1//EN"
 "http://www.w3.org/Graphics/SVG/1.1/DTD/svg11.dtd">
<!-- Generated by graphviz version 2.38.0 (20140413.2041)
 -->
<!-- Title: G Pages: 1 -->
<svg width="1250pt" height="844pt"
 viewBox="0.00 0.00 1250.43 844.00" xmlns="http://www.w3.org/2000/svg" xmlns:xlink="http://www.w3.org/1999/xlink">
<g id="graph0" class="graph" transform="scale(1 1) rotate(0) translate(4 840)">
<title>G</title>
<polygon fill="white" stroke="none" points="-4,4 -4,-840 1246.43,-840 1246.43,4 -4,4"/>
<g id="clust1" class="cluster"><title>cluster_Global</title>
<path fill="none" stroke="gray" d="M522.249,-152C522.249,-152 1222.43,-152 1222.43,-152 1228.43,-152 1234.43,-158 1234.43,-164 1234.43,-164 1234.43,-816 1234.43,-816 1234.43,-822 1228.43,-828 1222.43,-828 1222.43,-828 522.249,-828 522.249,-828 516.249,-828 510.249,-822 510.249,-816 510.249,-816 510.249,-164 510.249,-164 510.249,-158 516.249,-152 522.249,-152"/>
<text text-anchor="middle" x="872.34" y="-815.2" font-family="Times,serif" font-size="11.00" fill="gray">Global</text>
</g>
<g id="clust2" class="cluster"><title>cluster_\Clapp</title>
<path fill="none" stroke="gray" d="M530.249,-160C530.249,-160 1214.43,-160 1214.43,-160 1220.43,-160 1226.43,-166 1226.43,-172 1226.43,-172 1226.43,-788 1226.43,-788 1226.43,-794 1220.43,-800 1214.43,-800 1214.43,-800 530.249,-800 530.249,-800 524.249,-800 518.249,-794 518.249,-788 518.249,-788 518.249,-172 518.249,-172 518.249,-166 524.249,-160 530.249,-160"/>
<text text-anchor="middle" x="872.34" y="-787.2" font-family="Times,serif" font-size="11.00" fill="gray">Clapp</text>
</g>
<g id="clust3" class="cluster"><title>cluster_\Clapp\OtpHu</title>
<path fill="none" stroke="gray" d="M538.249,-168C538.249,-168 1206.43,-168 1206.43,-168 1212.43,-168 1218.43,-174 1218.43,-180 1218.43,-180 1218.43,-760 1218.43,-760 1218.43,-766 1212.43,-772 1206.43,-772 1206.43,-772 538.249,-772 538.249,-772 532.249,-772 526.249,-766 526.249,-760 526.249,-760 526.249,-180 526.249,-180 526.249,-174 532.249,-168 538.249,-168"/>
<text text-anchor="middle" x="872.34" y="-759.2" font-family="Times,serif" font-size="11.00" fill="gray">OtpHu</text>
</g>
<g id="clust4" class="cluster"><title>cluster_\Clapp\OtpHu\Response</title>
<path fill="none" stroke="gray" d="M968.43,-222C968.43,-222 1172.43,-222 1172.43,-222 1178.43,-222 1184.43,-228 1184.43,-234 1184.43,-234 1184.43,-444 1184.43,-444 1184.43,-450 1178.43,-456 1172.43,-456 1172.43,-456 968.43,-456 968.43,-456 962.43,-456 956.43,-450 956.43,-444 956.43,-444 956.43,-234 956.43,-234 956.43,-228 962.43,-222 968.43,-222"/>
<text text-anchor="middle" x="1070.43" y="-443.2" font-family="Times,serif" font-size="11.00" fill="gray">Response</text>
</g>
<g id="clust5" class="cluster"><title>cluster_\Clapp\OtpHu\Request</title>
<path fill="none" stroke="gray" d="M590.249,-564C590.249,-564 1169.43,-564 1169.43,-564 1175.43,-564 1181.43,-570 1181.43,-576 1181.43,-576 1181.43,-732 1181.43,-732 1181.43,-738 1175.43,-744 1169.43,-744 1169.43,-744 590.249,-744 590.249,-744 584.249,-744 578.249,-738 578.249,-732 578.249,-732 578.249,-576 578.249,-576 578.249,-570 584.249,-564 590.249,-564"/>
<text text-anchor="middle" x="879.84" y="-731.2" font-family="Times,serif" font-size="11.00" fill="gray">Request</text>
</g>
<g id="clust6" class="cluster"><title>cluster_\Clapp\OtpHu\Contract</title>
<path fill="none" stroke="gray" d="M546.249,-439C546.249,-439 744.249,-439 744.249,-439 750.249,-439 756.249,-445 756.249,-451 756.249,-451 756.249,-499 756.249,-499 756.249,-505 750.249,-511 744.249,-511 744.249,-511 546.249,-511 546.249,-511 540.249,-511 534.249,-505 534.249,-499 534.249,-499 534.249,-451 534.249,-451 534.249,-445 540.249,-439 546.249,-439"/>
<text text-anchor="middle" x="645.249" y="-498.2" font-family="Times,serif" font-size="11.00" fill="gray">Contract</text>
</g>
<!-- \\Clapp\\OtpHu\\Response\\PaymentResponse -->
<g id="node1" class="node"><title>\\Clapp\\OtpHu\\Response\\PaymentResponse</title>
<polygon fill="none" stroke="black" points="1129.43,-266 1011.43,-266 1011.43,-230 1129.43,-230 1129.43,-266"/>
<text text-anchor="middle" x="1070.43" y="-245.2" font-family="Courier,monospace" font-size="11.00">PaymentResponse</text>
</g>
<!-- \\Omnipay\\Common\\Message\\AbstractResponse -->
<g id="node16" class="node"><title>\\Omnipay\\Common\\Message\\AbstractResponse</title>
<ellipse fill="none" stroke="black" cx="645.249" cy="-126" rx="181.968" ry="18"/>
<text text-anchor="middle" x="645.249" y="-122.3" font-family="Times,serif" font-size="14.00" fill="gray">\Omnipay\Common\Message\AbstractResponse</text>
</g>
<!-- \\Clapp\\OtpHu\\Response\\PaymentResponse&#45;&gt;\\Omnipay\\Common\\Message\\AbstractResponse -->
<g id="edge2" class="edge"><title>\\Clapp\\OtpHu\\Response\\PaymentResponse&#45;&gt;\\Omnipay\\Common\\Message\\AbstractResponse</title>
<path fill="none" stroke="black" d="M1011.22,-245.941C985.498,-243.255 955.48,-237.608 930.43,-226 892.115,-208.245 896.564,-182.142 858.43,-164 836.6,-153.614 812.276,-146.05 788.107,-140.545"/>
<polygon fill="none" stroke="black" points="788.647,-137.081 778.133,-138.385 787.165,-143.922 788.647,-137.081"/>
</g>
<!-- \\Omnipay\\Common\\Message\\RedirectResponseInterface -->
<g id="node17" class="node"><title>\\Omnipay\\Common\\Message\\RedirectResponseInterface</title>
<ellipse fill="none" stroke="black" cx="645.249" cy="-72" rx="213.362" ry="18"/>
<text text-anchor="middle" x="645.249" y="-68.3" font-family="Times,serif" font-size="14.00" fill="gray">\Omnipay\Common\Message\RedirectResponseInterface</text>
</g>
<!-- \\Clapp\\OtpHu\\Response\\PaymentResponse&#45;&gt;\\Omnipay\\Common\\Message\\RedirectResponseInterface -->
<g id="edge3" class="edge"><title>\\Clapp\\OtpHu\\Response\\PaymentResponse&#45;&gt;\\Omnipay\\Common\\Message\\RedirectResponseInterface</title>
<path fill="none" stroke="black" stroke-dasharray="1,5" d="M1011.43,-249.964C984.714,-248.225 953.825,-242.213 930.43,-226 877.1,-189.042 912.316,-135.143 858.43,-99 850.73,-93.8352 842.513,-89.4211 833.954,-85.6603"/>
<polygon fill="none" stroke="black" points="835.123,-82.3571 824.541,-81.8313 832.485,-88.8412 835.123,-82.3571"/>
</g>
<!-- \\Clapp\\OtpHu\\Response\\UnknownShopIdResponse -->
<g id="node2" class="node"><title>\\Clapp\\OtpHu\\Response\\UnknownShopIdResponse</title>
<polygon fill="none" stroke="black" points="1149.43,-428 991.43,-428 991.43,-392 1149.43,-392 1149.43,-428"/>
<text text-anchor="middle" x="1070.43" y="-407.2" font-family="Courier,monospace" font-size="11.00">UnknownShopIdResponse</text>
</g>
<!-- \\Clapp\\OtpHu\\BadResponseException -->
<g id="node13" class="node"><title>\\Clapp\\OtpHu\\BadResponseException</title>
<polygon fill="none" stroke="black" points="721.249,-428 569.249,-428 569.249,-392 721.249,-392 721.249,-428"/>
<text text-anchor="middle" x="645.249" y="-407.2" font-family="Courier,monospace" font-size="11.00">BadResponseException</text>
</g>
<!-- \\Clapp\\OtpHu\\Response\\UnknownShopIdResponse&#45;&gt;\\Clapp\\OtpHu\\BadResponseException -->
<g id="edge5" class="edge"><title>\\Clapp\\OtpHu\\Response\\UnknownShopIdResponse&#45;&gt;\\Clapp\\OtpHu\\BadResponseException</title>
<path fill="none" stroke="black" d="M991.319,-410C917.609,-410 807.372,-410 731.431,-410"/>
<polygon fill="none" stroke="black" points="731.416,-406.5 721.416,-410 731.416,-413.5 731.416,-406.5"/>
</g>
<!-- \\Clapp\\OtpHu\\Response\\TransactionDetailsResponse -->
<g id="node3" class="node"><title>\\Clapp\\OtpHu\\Response\\TransactionDetailsResponse</title>
<polygon fill="none" stroke="black" points="1166.43,-374 974.43,-374 974.43,-338 1166.43,-338 1166.43,-374"/>
<text text-anchor="middle" x="1070.43" y="-353.2" font-family="Courier,monospace" font-size="11.00">TransactionDetailsResponse</text>
</g>
<!-- \\Clapp\\OtpHu\\Response\\TransactionDetailsResponse&#45;&gt;\\Omnipay\\Common\\Message\\AbstractResponse -->
<g id="edge8" class="edge"><title>\\Clapp\\OtpHu\\Response\\TransactionDetailsResponse&#45;&gt;\\Omnipay\\Common\\Message\\AbstractResponse</title>
<path fill="none" stroke="black" d="M974.305,-350.226C958.462,-345.856 943.091,-339.146 930.43,-329 867.995,-278.964 921.23,-213.578 858.43,-164 844.366,-152.897 828.139,-144.617 811.052,-138.494"/>
<polygon fill="none" stroke="black" points="812.072,-135.145 801.478,-135.31 809.863,-141.787 812.072,-135.145"/>
</g>
<!-- \\Clapp\\OtpHu\\Response\\GenerateTransactionIdResponse -->
<g id="node4" class="node"><title>\\Clapp\\OtpHu\\Response\\GenerateTransactionIdResponse</title>
<polygon fill="none" stroke="black" points="1176.43,-320 964.43,-320 964.43,-284 1176.43,-284 1176.43,-320"/>
<text text-anchor="middle" x="1070.43" y="-299.2" font-family="Courier,monospace" font-size="11.00">GenerateTransactionIdResponse</text>
</g>
<!-- \\Clapp\\OtpHu\\Response\\GenerateTransactionIdResponse&#45;&gt;\\Omnipay\\Common\\Message\\AbstractResponse -->
<g id="edge10" class="edge"><title>\\Clapp\\OtpHu\\Response\\GenerateTransactionIdResponse&#45;&gt;\\Omnipay\\Common\\Message\\AbstractResponse</title>
<path fill="none" stroke="black" d="M964.416,-291.162C952.36,-287.199 940.721,-281.944 930.43,-275 881.687,-242.108 907.413,-196.534 858.43,-164 842.03,-153.107 823.408,-145.086 804.172,-139.217"/>
<polygon fill="none" stroke="black" points="804.954,-135.8 794.377,-136.423 803.034,-142.532 804.954,-135.8"/>
</g>
<!-- \\Clapp\\OtpHu\\Request\\GenerateTransactionIdRequest -->
<g id="node5" class="node"><title>\\Clapp\\OtpHu\\Request\\GenerateTransactionIdRequest</title>
<polygon fill="none" stroke="black" points="1173.43,-716 967.43,-716 967.43,-680 1173.43,-680 1173.43,-716"/>
<text text-anchor="middle" x="1070.43" y="-695.2" font-family="Courier,monospace" font-size="11.00">GenerateTransactionIdRequest</text>
</g>
<!-- \\Clapp\\OtpHu\\Request\\AbstractRequest -->
<g id="node6" class="node"><title>\\Clapp\\OtpHu\\Request\\AbstractRequest</title>
<polygon fill="none" stroke="black" points="704.249,-662 586.249,-662 586.249,-626 704.249,-626 704.249,-662"/>
<text text-anchor="start" x="611.249" y="-647.2" font-family="Courier,monospace" font-size="11.00">«abstract»</text>
<text text-anchor="start" x="594.249" y="-635.2" font-family="Courier,monospace" font-size="11.00">AbstractRequest</text>
</g>
<!-- \\Clapp\\OtpHu\\Request\\GenerateTransactionIdRequest&#45;&gt;\\Clapp\\OtpHu\\Request\\AbstractRequest -->
<g id="edge4" class="edge"><title>\\Clapp\\OtpHu\\Request\\GenerateTransactionIdRequest&#45;&gt;\\Clapp\\OtpHu\\Request\\AbstractRequest</title>
<path fill="none" stroke="black" d="M967.26,-684.963C888.974,-674.973 783.117,-661.465 714.755,-652.742"/>
<polygon fill="none" stroke="black" points="714.894,-649.231 704.532,-651.437 714.008,-656.175 714.894,-649.231"/>
</g>
<!-- \\Omnipay\\Common\\Message\\AbstractRequest -->
<g id="node18" class="node"><title>\\Omnipay\\Common\\Message\\AbstractRequest</title>
<ellipse fill="none" stroke="black" cx="180.034" cy="-644" rx="176.569" ry="18"/>
<text text-anchor="middle" x="180.034" y="-640.3" font-family="Times,serif" font-size="14.00" fill="gray">\Omnipay\Common\Message\AbstractRequest</text>
</g>
<!-- \\Clapp\\OtpHu\\Request\\AbstractRequest&#45;&gt;\\Omnipay\\Common\\Message\\AbstractRequest -->
<g id="edge9" class="edge"><title>\\Clapp\\OtpHu\\Request\\AbstractRequest&#45;&gt;\\Omnipay\\Common\\Message\\AbstractRequest</title>
<path fill="none" stroke="black" d="M586.052,-644C531,-644 445.364,-644 366.991,-644"/>
<polygon fill="none" stroke="black" points="366.977,-640.5 356.977,-644 366.977,-647.5 366.977,-640.5"/>
</g>
<!-- \\Clapp\\OtpHu\\Request\\PaymentRequest -->
<g id="node7" class="node"><title>\\Clapp\\OtpHu\\Request\\PaymentRequest</title>
<polygon fill="none" stroke="black" points="1125.93,-662 1014.93,-662 1014.93,-626 1125.93,-626 1125.93,-662"/>
<text text-anchor="middle" x="1070.43" y="-641.2" font-family="Courier,monospace" font-size="11.00">PaymentRequest</text>
</g>
<!-- \\Clapp\\OtpHu\\Request\\PaymentRequest&#45;&gt;\\Clapp\\OtpHu\\Request\\AbstractRequest -->
<g id="edge12" class="edge"><title>\\Clapp\\OtpHu\\Request\\PaymentRequest&#45;&gt;\\Clapp\\OtpHu\\Request\\AbstractRequest</title>
<path fill="none" stroke="black" d="M1014.54,-644C937.684,-644 798.073,-644 714.579,-644"/>
<polygon fill="none" stroke="black" points="714.433,-640.5 704.433,-644 714.433,-647.5 714.433,-640.5"/>
</g>
<!-- \\Clapp\\OtpHu\\Request\\TransactionDetailsRequest -->
<g id="node8" class="node"><title>\\Clapp\\OtpHu\\Request\\TransactionDetailsRequest</title>
<polygon fill="none" stroke="black" points="1162.93,-608 977.93,-608 977.93,-572 1162.93,-572 1162.93,-608"/>
<text text-anchor="middle" x="1070.43" y="-587.2" font-family="Courier,monospace" font-size="11.00">TransactionDetailsRequest</text>
</g>
<!-- \\Clapp\\OtpHu\\Request\\TransactionDetailsRequest&#45;&gt;\\Clapp\\OtpHu\\Request\\AbstractRequest -->
<g id="edge13" class="edge"><title>\\Clapp\\OtpHu\\Request\\TransactionDetailsRequest&#45;&gt;\\Clapp\\OtpHu\\Request\\AbstractRequest</title>
<path fill="none" stroke="black" d="M977.906,-604.843C940.866,-610.598 897.664,-616.994 858.43,-622 810.407,-628.128 756.104,-633.734 714.455,-637.753"/>
<polygon fill="none" stroke="black" points="714.042,-634.277 704.421,-638.714 714.71,-641.245 714.042,-634.277"/>
</g>
<!-- \\Clapp\\OtpHu\\Contract\\TransactionIdFactoryContract -->
<g id="node9" class="node"><title>\\Clapp\\OtpHu\\Contract\\TransactionIdFactoryContract</title>
<polygon fill="none" stroke="black" points="748.249,-483 542.249,-483 542.249,-447 748.249,-447 748.249,-483"/>
<text text-anchor="middle" x="645.249" y="-462.2" font-family="Courier,monospace" font-size="11.00">TransactionIdFactoryContract</text>
</g>
<!-- \\Clapp\\OtpHu\\Transaction -->
<g id="node10" class="node"><title>\\Clapp\\OtpHu\\Transaction</title>
<polygon fill="none" stroke="black" points="1115.93,-500 1024.93,-500 1024.93,-464 1115.93,-464 1115.93,-500"/>
<text text-anchor="middle" x="1070.43" y="-479.2" font-family="Courier,monospace" font-size="11.00">Transaction</text>
</g>
<!-- \\Clapp\\OtpHu\\Gateway -->
<g id="node11" class="node"><title>\\Clapp\\OtpHu\\Gateway</title>
<polygon fill="none" stroke="black" points="677.249,-555 613.249,-555 613.249,-519 677.249,-519 677.249,-555"/>
<text text-anchor="middle" x="645.249" y="-534.2" font-family="Courier,monospace" font-size="11.00">Gateway</text>
</g>
<!-- \\Omnipay\\Common\\AbstractGateway -->
<g id="node15" class="node"><title>\\Omnipay\\Common\\AbstractGateway</title>
<ellipse fill="none" stroke="black" cx="180.034" cy="-537" rx="145.674" ry="18"/>
<text text-anchor="middle" x="180.034" y="-533.3" font-family="Times,serif" font-size="14.00" fill="gray">\Omnipay\Common\AbstractGateway</text>
</g>
<!-- \\Clapp\\OtpHu\\Gateway&#45;&gt;\\Omnipay\\Common\\AbstractGateway -->
<g id="edge1" class="edge"><title>\\Clapp\\OtpHu\\Gateway&#45;&gt;\\Omnipay\\Common\\AbstractGateway</title>
<path fill="none" stroke="black" d="M613.137,-537C557.098,-537 435.73,-537 335.849,-537"/>
<polygon fill="none" stroke="black" points="335.638,-533.5 325.638,-537 335.638,-540.5 335.638,-533.5"/>
</g>
<!-- \\Clapp\\OtpHu\\TransactionIdFactoryUsingPaymentGateway -->
<g id="node12" class="node"><title>\\Clapp\\OtpHu\\TransactionIdFactoryUsingPaymentGateway</title>
<polygon fill="none" stroke="black" points="1210.43,-554 930.43,-554 930.43,-518 1210.43,-518 1210.43,-554"/>
<text text-anchor="middle" x="1070.43" y="-533.2" font-family="Courier,monospace" font-size="11.00">TransactionIdFactoryUsingPaymentGateway</text>
</g>
<!-- \\Clapp\\OtpHu\\TransactionIdFactoryUsingPaymentGateway&#45;&gt;\\Clapp\\OtpHu\\Contract\\TransactionIdFactoryContract -->
<g id="edge7" class="edge"><title>\\Clapp\\OtpHu\\TransactionIdFactoryUsingPaymentGateway&#45;&gt;\\Clapp\\OtpHu\\Contract\\TransactionIdFactoryContract</title>
<path fill="none" stroke="black" stroke-dasharray="1,5" d="M969.685,-517.935C956.438,-515.153 943.073,-512.15 930.43,-509 897.962,-500.91 891.224,-493.645 858.43,-487 826.194,-480.468 790.788,-475.82 758.29,-472.536"/>
<polygon fill="none" stroke="black" points="758.598,-469.049 748.305,-471.559 757.917,-476.016 758.598,-469.049"/>
</g>
<!-- \\Clapp\\OtpHu\\TransactionIdFactoryUsingPaymentGateway&#45;&gt;\\Clapp\\OtpHu\\Gateway -->
<g id="edge6" class="edge"><title>\\Clapp\\OtpHu\\TransactionIdFactoryUsingPaymentGateway&#45;&gt;\\Clapp\\OtpHu\\Gateway</title>
<path fill="none" stroke="black" d="M930.279,-536.329C845.637,-536.529 743.407,-536.77 687.589,-536.902"/>
<polygon fill="none" stroke="black" points="687.384,-533.403 677.392,-536.926 687.4,-540.403 687.384,-533.403"/>
</g>
<!-- \\Guzzle\\Http\\Exception\\BadResponseException -->
<g id="node19" class="node"><title>\\Guzzle\\Http\\Exception\\BadResponseException</title>
<ellipse fill="none" stroke="black" cx="180.034" cy="-410" rx="180.068" ry="18"/>
<text text-anchor="middle" x="180.034" y="-406.3" font-family="Times,serif" font-size="14.00" fill="gray">\Guzzle\Http\Exception\BadResponseException</text>
</g>
<!-- \\Clapp\\OtpHu\\BadResponseException&#45;&gt;\\Guzzle\\Http\\Exception\\BadResponseException -->
<g id="edge11" class="edge"><title>\\Clapp\\OtpHu\\BadResponseException&#45;&gt;\\Guzzle\\Http\\Exception\\BadResponseException</title>
<path fill="none" stroke="black" d="M569.053,-410C515.207,-410 440.188,-410 370.451,-410"/>
<polygon fill="none" stroke="black" points="370.204,-406.5 360.204,-410 370.204,-413.5 370.204,-406.5"/>
</g>
<!-- \\Clapp\\OtpHu\\ServerErrorResponseException -->
<g id="node14" class="node"><title>\\Clapp\\OtpHu\\ServerErrorResponseException</title>
<polygon fill="none" stroke="black" points="1173.43,-212 967.43,-212 967.43,-176 1173.43,-176 1173.43,-212"/>
<text text-anchor="middle" x="1070.43" y="-191.2" font-family="Courier,monospace" font-size="11.00">ServerErrorResponseException</text>
</g>
<!-- \\Guzzle\\Http\\Exception\\ServerErrorResponseException -->
<g id="node20" class="node"><title>\\Guzzle\\Http\\Exception\\ServerErrorResponseException</title>
<ellipse fill="none" stroke="black" cx="645.249" cy="-18" rx="207.163" ry="18"/>
<text text-anchor="middle" x="645.249" y="-14.3" font-family="Times,serif" font-size="14.00" fill="gray">\Guzzle\Http\Exception\ServerErrorResponseException</text>
</g>
<!-- \\Clapp\\OtpHu\\ServerErrorResponseException&#45;&gt;\\Guzzle\\Http\\Exception\\ServerErrorResponseException -->
<g id="edge14" class="edge"><title>\\Clapp\\OtpHu\\ServerErrorResponseException&#45;&gt;\\Guzzle\\Http\\Exception\\ServerErrorResponseException</title>
<path fill="none" stroke="black" d="M1050.7,-175.807C1016.02,-143.345 938.056,-75.9491 858.43,-45 844.589,-39.6202 829.894,-35.2623 814.951,-31.7384"/>
<polygon fill="none" stroke="black" points="815.624,-28.3025 805.101,-29.5407 814.099,-35.1345 815.624,-28.3025"/>
</g>
</g>
</svg>
